<?xml version="1.0" encoding="UTF-8"?>
<svg version="1.1" xmlns="http://www.w3.org/2000/svg" width="96" height="96">
<path d="M0 0 C6.15956582 3.13789202 7.98697931 8.40785169 10.20703125 14.7734375 C11.37805096 19.53827634 11.10600386 21.55399184 9 26 C7.1414247 28.38081961 5.35203707 30.03996911 3 32 C2.34 32 1.68 32 1 32 C3.44636431 41.30601319 3.44636431 41.30601319 9.8125 48 C13.05258953 48 15.9017244 46.90811526 19 46 C23.1873397 45.48726453 25.97119654 45.89896849 29.41015625 48.48046875 C34.10698942 52.96957957 38.40052616 58.10073226 38.625 64.8125 C38.15789203 69.65343718 36.83850752 72.34732012 33.18359375 75.6328125 C28.2517495 79.42653885 24.12884498 80.971092 17.890625 80.5703125 C5.27158052 78.08060913 -3.59210041 69.24974301 -10.59277344 58.96118164 C-18.20238724 47.29792335 -24.35127429 35.14052334 -24.375 21 C-24.39949219 20.23171875 -24.42398437 19.4634375 -24.44921875 18.671875 C-24.47831031 12.96992895 -23.32094888 9.65994603 -20 5 C-14.23111204 0.16157784 -7.26989059 -0.92009553 0 0 Z M-15.61328125 11.703125 C-18.93412275 17.20356106 -17.6131802 25.16274248 -16.30859375 31.19921875 C-11.89868989 45.31460141 -3.2671791 60.36436343 9 69 C9.56332031 69.40992188 10.12664063 69.81984375 10.70703125 70.2421875 C14.39355933 72.65549031 17.65334908 73.74874917 22 73.51953125 C25.77461453 72.53901615 28.78957419 70.18439468 31 67 C31.43269705 64.02817962 31.24320907 62.47137427 29.86328125 59.796875 C26.79829086 55.645825 26.79829086 55.645825 22.5625 52.875 C19.18388676 53.0398104 16.23564128 54.03498418 13 55 C9.03745082 55.56607845 7.48127472 55.28074359 4 53.25 C-1.35830143 48.26025898 -5.20713185 40.41412672 -5.8125 33.125 C-5.63656853 30.40783611 -5.33356837 29.35378464 -3.453125 27.359375 C-2.19625502 26.37257625 -0.92523654 25.40352866 0.359375 24.453125 C2.32514968 22.94919469 2.32514968 22.94919469 3.1875 19.625 C2.9477848 14.99050613 1.37448372 10.37448372 -2 7 C-7.96922986 6.54082847 -11.45963592 7.31816286 -15.61328125 11.703125 Z " fill="#044C39" transform="translate(42,8)"/>
</svg>
